<svg width="1920" height="1080" viewBox="0 0 1920 1080" xmlns="http://www.w3.org/2000/svg"><rect width="1920" height="1080" fill="#2bb3ee"/><path d="M 0,1080 C 0,1080 0,90 0,90 C 30.388000408118074,75.29583047831721 60.77600081623615,60.59166095663443 113,58 C 165.22399918376385,55.40833904336557 239.28399714317345,64.9291866517795 256,66 C 272.71600285682655,67.0708133482205 232.08801061107016,59.69159243624753 264,66 C 295.91198938892984,72.30840756375247 400.36396041254574,92.30444360323035 453,91 C 505.63603958745426,89.69555639676965 506.45614773874695,67.09063315083111 519,56 C 531.543852261253,44.9093668491689 555.8114486324664,45.33302379344525 596,57 C 636.1885513675336,68.66697620655475 692.2980577313875,91.57727167538793 752,100 C 811.7019422686125,108.42272832461207 874.9963204419836,102.35788950500304 901,102 C 927.0036795580164,101.64211049499696 915.7166605006782,106.99117030459983 949,96 C 982.2833394993218,85.00882969540017 1060.1370375553036,57.67742927659762 1089,58 C 1117.8629624446964,58.32257072340238 1097.735189278108,86.29911258900967 1141,100 C 1184.264810721892,113.70088741099033 1290.9222053322642,113.12612036736374 1331,102 C 1371.0777946677358,90.87387963263626 1344.5759893928355,69.1964059415354 1368,78 C 1391.4240106071645,86.8035940584646 1464.7738370963948,126.08825586649465 1494,122 C 1523.2261629036052,117.91174413350535 1508.3286622215849,70.45057059248597 1556,59 C 1603.6713377784151,47.549429407514026 1713.9115140172657,72.10946176356147 1755,75 C 1796.0884859827343,77.89053823643853 1768.0252817093526,59.11158235326815 1784,58 C 1799.9747182906474,56.88841764673185 1859.9873591453238,73.44420882336593 1920,90 C 1920,90 1920,1080 1920,1080 Z" fill="#3d1053" opacity="0.049999999999999996"/><path d="M 0,1080 C 0,1080 0,180 0,180 C 19.072737291837825,191.18549737892022 38.14547458367565,202.37099475784044 75,207 C 111.85452541632435,211.62900524215956 166.4908389571352,209.70151834755853 195,210 C 223.5091610428648,210.29848165244147 225.89116958778368,212.82293185192552 270,199 C 314.1088304122163,185.17706814807448 399.9444826917301,155.00675424473943 449,146 C 498.0555173082699,136.99324575526057 510.3308996452961,149.15005116911675 529,156 C 547.6691003547039,162.84994883088325 572.7319187270855,164.39304107879357 611,165 C 649.2680812729145,165.60695892120643 700.7414254463621,165.2777845157089 731,160 C 761.2585745536379,154.7222154842911 770.302379487466,144.49582085837082 796,156 C 821.697620512534,167.50417914162918 864.0490566037736,200.73893205080773 918,212 C 971.9509433962264,223.26106794919227 1037.5013940974393,212.5484509383982 1080,210 C 1122.4986059025607,207.4515490616018 1141.9453670064681,213.06726419559953 1188,204 C 1234.0546329935319,194.93273580440047 1306.7171378766882,171.1824922792037 1336,156 C 1365.2828621233118,140.8175077207963 1351.1860814867794,134.20276668758572 1363,148 C 1374.8139185132206,161.79723331241428 1412.5385361761944,196.0064409704535 1447,197 C 1481.4614638238056,197.9935590295465 1512.6597738084427,165.77146943060012 1560,160 C 1607.3402261915573,154.22853056939988 1670.8223685900348,174.9076813071461 1714,187 C 1757.1776314099652,199.0923186928539 1780.0507518314184,202.5978053408154 1811,200 C 1841.9492481685816,197.4021946591846 1880.9746240842908,188.7010973295923 1920,180 C 1920,180 1920,1080 1920,1080 Z" fill="#3d1053" opacity="0.09999999999999999"/><path d="M 0,1080 C 0,1080 0,270 0,270 C 32.26324450815504,268.25899415553226 64.52648901631008,266.51798831106447 103,263 C 141.47351098368992,259.48201168893553 186.15728844291476,254.18704091127427 233,256 C 279.84271155708524,257.81295908872573 328.8443572120309,266.7338480438384 343,274 C 357.1556427879691,281.2661519561616 336.4652827089618,286.8775669133719 366,286 C 395.5347172910382,285.1224330866281 475.2945119521221,277.75588430267396 528,264 C 580.7054880478779,250.244115697326 606.3566694825494,230.09889587593207 631,237 C 655.6433305174506,243.90110412406793 679.2788101176803,277.84853219359775 722,283 C 764.7211898823197,288.15146780640225 826.5280900467297,264.5069753496768 881,258 C 935.4719099532703,251.4930246503232 982.6088296954001,262.12356640769514 991,268 C 999.3911703045999,273.87643359230486 969.0365911716694,274.99875901954266 1008,269 C 1046.9634088283306,263.00124098045734 1155.244805617922,249.88139751413433 1196,253 C 1236.755194382078,256.11860248586567 1209.9841863566417,275.47565092392 1227,285 C 1244.0158136433583,294.52434907608 1304.8184489555113,294.2159987901858 1350,282 C 1395.1815510444887,269.7840012098142 1424.7420178213133,245.66035391533694 1468,237 C 1511.2579821786867,228.33964608466306 1568.2134797592357,235.1425855484664 1612,246 C 1655.7865202407643,256.8574144515336 1686.404063141744,271.76930389079746 1708,272 C 1729.595936858256,272.23069610920254 1742.1702676737873,257.78019888834353 1776,255 C 1809.8297323262127,252.21980111165644 1864.9148661631064,261.10990055582823 1920,270 C 1920,270 1920,1080 1920,1080 Z" fill="#3d1053" opacity="0.15"/><path d="M 0,1080 C 0,1080 0,360 0,360 C 2.7363822427724003,367.0540581048905 5.4727644855448006,374.10811620978103 56,382 C 106.5272355144552,389.89188379021897 204.84532430059318,398.62159326576636 250,393 C 295.1546756994068,387.37840673423364 287.1459383120825,367.4055107271534 318,360 C 348.8540616879175,352.5944892728466 418.57092245107697,357.7563638256202 464,369 C 509.42907754892303,380.2436361743798 530.5703718836098,397.5690339703658 567,390 C 603.4296281163902,382.4309660296342 655.1475900144837,349.9675002929165 687,349 C 718.8524099855163,348.0324997070835 730.8392680584553,378.56096485796814 749,391 C 767.1607319415447,403.43903514203186 791.4953377516953,397.78864027521075 835,385 C 878.5046622483047,372.21135972478925 941.1793809347638,352.28447404118884 979,347 C 1016.8206190652362,341.71552595881116 1029.7871385092494,351.073463560034 1050,359 C 1070.2128614907506,366.926536439966 1097.6720650282384,373.42167171867504 1147,380 C 1196.3279349717616,386.57832828132496 1267.5246013777967,393.2398495652658 1313,383 C 1358.4753986222033,372.7601504347342 1378.2295294605758,345.61893002026187 1385,342 C 1391.7704705394242,338.38106997973813 1385.557280779901,358.28443035368673 1443,366 C 1500.442719220099,373.71556964631327 1621.5413474198206,369.2433485649912 1656,363 C 1690.4586525801794,356.7566514350088 1638.2773295408174,348.7421753863485 1659,343 C 1679.7226704591826,337.2578246136515 1773.349334416909,333.78794988961465 1829,337 C 1884.650665583091,340.21205011038535 1902.3253327915454,350.1060250551927 1920,360 C 1920,360 1920,1080 1920,1080 Z" fill="#3d1053" opacity="0.19999999999999998"/><path d="M 0,1080 C 0,1080 0,450 0,450 C 26.529686940618475,452.79006409646183 53.05937388123695,455.5801281929237 91,458 C 128.94062611876305,460.4198718070763 178.2921914156707,462.469551324767 226,454 C 273.7078085843293,445.530448675233 319.7718604560804,426.54166650800835 338,419 C 356.2281395439196,411.45833349199165 346.6203667600077,415.3637826431997 391,417 C 435.3796332399923,418.6362173568003 533.7466725038889,418.00320291919274 570,418 C 606.2533274961111,417.99679708080726 580.3929432244364,418.62340568002924 586,418 C 591.6070567755636,417.37659431997076 628.6815545983654,415.5031743606904 689,428 C 749.3184454016346,440.4968256393096 832.8808383821017,467.36389687720936 888,462 C 943.1191616178983,456.63610312279064 969.7950918732274,419.0412381304724 985,425 C 1000.2049081267726,430.9587618695276 1003.9387941249888,480.4711506009014 1045,479 C 1086.0612058750112,477.5288493990986 1164.4497316268166,425.07415946592204 1208,419 C 1251.5502683731834,412.92584053407796 1260.2622793677451,453.23221153541044 1283,464 C 1305.7377206322549,474.76778846458956 1342.5011509022029,455.99699439243625 1378,442 C 1413.4988490977971,428.00300560756375 1447.7331170234427,418.77981089484445 1481,418 C 1514.2668829765573,417.22018910515555 1546.5663810040257,424.88376202818597 1592,438 C 1637.4336189959743,451.11623797181403 1696.0013589604544,469.6851409924115 1722,464 C 1747.9986410395456,458.3148590075885 1741.428183154156,428.3756740021681 1769,422 C 1796.571816845844,415.6243259978319 1858.2859084229221,432.81216299891594 1920,450 C 1920,450 1920,1080 1920,1080 Z" fill="#3d1053" opacity="0.24999999999999997"/><path d="M 0,1080 C 0,1080 0,540 0,540 C -1.6131570142668963,542.3745117727952 -3.2263140285337926,544.7490235455905 51,536 C 105.22631402853379,527.2509764544095 215.29209909986827,507.37841759043323 254,506 C 292.70790090013173,504.62158240956677 260.0579176290608,521.7373060926768 294,530 C 327.9420823709392,538.2626939073232 428.4762303838886,537.6723580388594 482,538 C 535.5237696161114,538.3276419611406 542.0371608353851,539.5732617518853 555,544 C 567.9628391646149,548.4267382481147 587.3751262745712,556.0345949535996 626,560 C 664.6248737254288,563.9654050464004 722.4623340663296,564.288358433716 749,551 C 775.5376659336704,537.711641566284 770.7755374601101,510.81197131153647 800,513 C 829.2244625398899,515.1880286884635 892.4355160932298,546.4637563201381 934,546 C 975.5644839067702,545.5362436798619 995.4823981669708,513.3330034079111 1024,517 C 1052.5176018330292,520.6669965920889 1089.634891238887,560.2042300482176 1129,567 C 1168.365108761113,573.7957699517824 1209.9780368774818,547.8500763992181 1242,535 C 1274.0219631225182,522.1499236007819 1296.4529612511856,522.3954643549098 1336,529 C 1375.5470387488144,535.6045356450902 1432.2101181177761,548.568066181143 1470,547 C 1507.7898818822239,545.431933818857 1526.7065662777093,529.3322709205183 1556,520 C 1585.2934337222907,510.66772907948166 1624.9636167713857,508.1028501367834 1663,510 C 1701.0363832286143,511.8971498632166 1737.438966636747,518.2563285323475 1780,524 C 1822.561033363253,529.7436714676525 1871.2805166816265,534.8718357338262 1920,540 C 1920,540 1920,1080 1920,1080 Z" fill="#3d1053" opacity="0.3"/><path d="M 0,1080 C 0,1080 0,630 0,630 C 38.94980320938845,622.4860679473484 77.8996064187769,614.9721358946969 108,613 C 138.1003935812231,611.0278641053031 159.35137753428086,614.5975243685612 206,627 C 252.64862246571914,639.4024756314388 324.6948834440997,660.6377666310586 376,655 C 427.3051165559003,649.3622333689414 457.8690886893204,616.8514091072041 479,603 C 500.1309113106796,589.1485908927959 511.82876179861876,593.9565969401252 534,596 C 556.1712382013812,598.0434030598748 588.8158641162047,597.3222031322954 629,599 C 669.1841358837953,600.6777968677046 716.9077817365626,604.7545905306932 758,612 C 799.0922182634374,619.2454094693068 833.5530089375451,629.6594347449318 871,629 C 908.4469910624549,628.3405652550682 948.8801825132567,616.6076704895795 974,626 C 999.1198174867433,635.3923295104205 1008.9262610094272,665.9098832967503 1040,662 C 1071.0737389905728,658.0901167032497 1123.4147734490339,619.7527963234194 1178,601 C 1232.5852265509661,582.2472036765806 1289.4146451944378,583.0789314095717 1328,602 C 1366.5853548055622,620.9210685904283 1386.9266457732151,657.9314780382939 1407,656 C 1427.0733542267849,654.0685219617061 1446.878771712702,613.1951564372526 1478,615 C 1509.121228287298,616.8048435627474 1551.5582673759768,661.2878962126952 1594,657 C 1636.4417326240232,652.7121037873048 1678.8881587833907,599.6532587119667 1729,598 C 1779.1118412166093,596.3467412880333 1836.8890974904598,646.099068939438 1870,660 C 1903.1109025095402,673.900931060562 1911.55545125477,651.950465530281 1920,630 C 1920,630 1920,1080 1920,1080 Z" fill="#3d1053" opacity="0.35"/><path d="M 0,1080 C 0,1080 0,720 0,720 C 5.746440107253811,715.324771849034 11.492880214507622,710.6495436980682 59,718 C 106.50711978549238,725.3504563019318 195.77491924922333,744.7265970567614 233,741 C 270.22508075077667,737.2734029432386 255.4074427885992,710.4440680748862 294,712 C 332.5925572114008,713.5559319251138 424.5953095963799,743.4971306436938 468,742 C 511.4046904036201,740.5028693563062 506.2113188258811,707.5674093503385 542,697 C 577.7886811741189,686.4325906496615 654.5594151000959,698.2332319549521 695,717 C 735.4405848999041,735.7667680450479 739.5510207737353,761.4996628298532 767,751 C 794.4489792262647,740.5003371701468 845.236501804963,693.7681167256358 862,691 C 878.763498195037,688.2318832743642 861.5029720064126,729.4278702676039 908,746 C 954.4970279935874,762.5721297323961 1064.7516101693866,754.5204022039486 1108,738 C 1151.2483898306134,721.4795977960514 1127.4905873160415,696.4905209166017 1141,694 C 1154.5094126839585,691.5094790833983 1205.2860405664476,711.5175141296452 1253,715 C 1300.7139594335524,718.4824858703548 1345.3652504181687,705.4394225648175 1387,695 C 1428.6347495818313,684.5605774351825 1467.2529577608773,676.7247956110847 1510,693 C 1552.7470422391227,709.2752043889153 1599.6229185383215,749.6613949908432 1629,753 C 1658.3770814616785,756.3386050091568 1670.2553680858364,722.6296244255421 1712,710 C 1753.7446319141636,697.3703755744579 1825.3556091183323,705.8201073069879 1865,711 C 1904.6443908816677,716.1798926930121 1912.3221954408339,718.089946346506 1920,720 C 1920,720 1920,1080 1920,1080 Z" fill="#3d1053" opacity="0.39999999999999997"/><path d="M 0,1080 C 0,1080 0,810 0,810 C 9.957418267060518,796.55465740883 19.914836534121036,783.1093148176602 67,786 C 114.08516346587896,788.8906851823398 198.29807213057637,808.1173981381894 251,820 C 303.7019278694236,831.8826018618106 324.8928749435736,836.4210926295824 351,836 C 377.1071250564264,835.5789073704176 408.1304280951294,830.198231343481 437,817 C 465.8695719048706,803.801768656519 492.58541267590874,782.7859819964939 523,782 C 553.4145873240913,781.2140180035061 587.5279212012356,800.6578406705435 618,817 C 648.4720787987644,833.3421593294565 675.3029025191493,846.5826553213324 724,836 C 772.6970974808507,825.4173446786676 843.2604687221674,791.0115380441273 870,780 C 896.7395312778326,768.9884619558727 879.6552225921813,781.3711925021582 916,790 C 952.3447774078187,798.6288074978418 1042.1186409091067,803.5036919472401 1077,813 C 1111.8813590908933,822.4963080527599 1091.870213771392,836.6140397088811 1115,835 C 1138.129786228608,833.3859602911189 1204.400504005325,816.0401492172355 1271,815 C 1337.599495994675,813.9598507827645 1404.5277702073074,829.2253634221769 1445,830 C 1485.4722297926926,830.7746365778231 1499.488415165445,817.0583970940576 1517,818 C 1534.511584834555,818.9416029059424 1555.5185691309116,834.5410482015928 1605,829 C 1654.4814308690884,823.4589517984072 1732.4373083109083,796.7774100995711 1761,795 C 1789.5626916890917,793.2225899004289 1768.7321976254545,816.3493114001226 1787,823 C 1805.2678023745455,829.6506885998774 1862.6339011872728,819.8253442999387 1920,810 C 1920,810 1920,1080 1920,1080 Z" fill="#3d1053" opacity="0.44999999999999996"/><path d="M 0,1080 C 0,1080 0,900 0,900 C 13.10618209165942,906.2179434403416 26.21236418331884,912.4358868806833 69,921 C 111.78763581668116,929.5641131193167 184.25672535838407,940.4743959176083 240,932 C 295.7432746416159,923.5256040823917 334.7607343831448,895.6665294488839 362,885 C 389.2392656168552,874.3334705511161 404.7003371090368,880.8594862868562 448,890 C 491.2996628909632,899.1405137131438 562.4379171807083,910.8955254036913 581,915 C 599.5620828192917,919.1044745963087 565.5479941681301,915.5584120983783 589,910 C 612.4520058318699,904.4415879016217 693.3701061467714,896.8708262027952 759,892 C 824.6298938532286,887.1291737972048 874.9715812447845,884.9582830904407 889,890 C 903.0284187552155,895.0417169095593 880.7435688740904,907.2960414354421 924,919 C 967.2564311259096,930.7039585645579 1076.0541432588534,941.8575511677908 1108,927 C 1139.9458567411466,912.1424488322092 1095.039858090496,871.2737538933942 1128,870 C 1160.960141909504,868.7262461066058 1271.786424379163,907.0474332586323 1305,919 C 1338.213575620837,930.9525667413677 1293.814444392852,916.5365130720763 1329,910 C 1364.185555607148,903.4634869279237 1478.9557980494292,904.8065144530624 1533,900 C 1587.0442019505708,895.1934855469376 1580.3623634094313,884.237429115674 1583,891 C 1585.6376365905687,897.762570884326 1597.5947483128452,922.2437690842415 1651,920 C 1704.4052516871548,917.7562309157585 1799.2586433391868,888.7874945473595 1851,881 C 1902.7413566608132,873.2125054526405 1911.3706783304065,886.6062527263202 1920,900 C 1920,900 1920,1080 1920,1080 Z" fill="#3d1053" opacity="0.49999999999999994"/><path d="M 0,1080 C 0,1080 0,990 0,990 C 7.9423954910446355,974.1355537501341 15.884790982089271,958.2711075002683 65,960 C 114.11520901791073,961.7288924997317 204.40323156268755,981.0511237490607 244,986 C 283.59676843731245,990.9488762509393 272.50228276716047,981.5243975034894 307,976 C 341.49771723283953,970.4756024965106 421.5876373686706,968.8512862369827 467,965 C 512.4123626313294,961.1487137630173 523.1471677581571,955.0704575485806 535,969 C 546.8528322418429,982.9295424514194 559.8236915987011,1016.8668835686944 600,1020 C 640.1763084012989,1023.1331164313056 707.5580658470386,995.4620081766418 757,991 C 806.4419341529614,986.5379918233582 837.9440450131447,1005.2850837247383 857,1003 C 876.0559549868553,1000.7149162752617 882.6657541003822,977.397656924405 927,976 C 971.3342458996178,974.602343075595 1053.392938585326,995.1242885776418 1098,991 C 1142.607061414674,986.8757114223582 1149.7624915583135,958.105188765028 1194,961 C 1238.2375084416865,963.894811234972 1319.55709518142,998.4549563622465 1339,1012 C 1358.44290481858,1025.5450436377535 1316.0091277160075,1018.0749857859859 1335,1007 C 1353.9908722839925,995.9250142140141 1434.4063939545506,981.2451004938102 1489,982 C 1543.5936060454494,982.7548995061898 1572.3652964657906,998.9446122387727 1618,1003 C 1663.6347035342094,1007.0553877612273 1726.132420182287,998.9764505510996 1765,996 C 1803.867579817713,993.0235494489004 1819.1050228050606,995.1495855568286 1841,995 C 1862.8949771949394,994.8504144431714 1891.4474885974696,992.4252072215857 1920,990 C 1920,990 1920,1080 1920,1080 Z" fill="#3d1053" opacity="0.5499999999999999"/></svg>